<?xml version="1.0" standalone="no"?><!DOCTYPE svg PUBLIC "-//W3C//DTD SVG 1.1//EN" "http://www.w3.org/Graphics/SVG/1.1/DTD/svg11.dtd"><svg t="1647245485739" class="icon" viewBox="0 0 1024 1024" version="1.1" xmlns="http://www.w3.org/2000/svg" p-id="11029" xmlns:xlink="http://www.w3.org/1999/xlink" width="200" height="200"><defs><style type="text/css"></style></defs><path d="M917.9136 288.3584L560.7424 16.7936a81.92 81.92 0 0 0-99.328 0L105.8816 288.3584a83.5584 83.5584 0 0 0-32.9728 66.3552V901.12a122.88 122.88 0 0 0 122.88 122.88h632.2176a122.88 122.88 0 0 0 122.88-122.88V354.9184a83.5584 83.5584 0 0 0-32.9728-66.56zM593.92 972.8h-163.84V681.1648a15.5648 15.5648 0 0 1 15.36-15.36h131.2768a15.5648 15.5648 0 0 1 15.36 15.36zM901.12 901.12a71.68 71.68 0 0 1-71.68 71.68h-184.32V681.1648A66.56 66.56 0 0 0 577.7408 614.4h-131.4816a66.56 66.56 0 0 0-66.56 66.56V972.8h-184.32A71.68 71.68 0 0 1 124.3136 901.12V354.7136a32.5632 32.5632 0 0 1 12.6976-25.8048L492.544 57.5488a30.72 30.72 0 0 1 37.2736 0l357.1712 271.36a32.5632 32.5632 0 0 1 12.9024 25.8048z" p-id="11030"></path></svg>