<svg viewBox="0 0 500 500" xmlns="http://www.w3.org/2000/svg"><defs><style>.a{fill:#FFFFFF;}.b{fill:#22293A;}.c{fill:#fff;}.d{fill:#fff;}</style></defs><title>画板 7</title><ellipse transform="translate(-69.14 86.51) rotate(-16.04)" ry="100.33" rx="110.05" cy="288.59" cx="272.4" class="a"></ellipse><path d="M266.9,396.51a118.62,118.62,0,0,1-52.68-12.18c-26.94-13.32-46.14-35.85-54.07-63.46h0c-16.32-56.74,20.76-117.39,82.66-135.19s125.53,13.89,141.85,70.63S363.89,373.71,302,391.51A127,127,0,0,1,266.9,396.51Zm10.82-202.27a112.85,112.85,0,0,0-31.18,4.43c-54.73,15.74-87.66,68.88-73.4,118.47h0c6.87,23.9,23.59,43.46,47.07,55.08,23.71,11.72,51.42,13.94,78,6.3,54.74-15.74,87.67-68.89,73.42-118.47C360.13,219.93,321.16,194.24,277.72,194.24Z" class="b"></path><path d="M245.26,388.17a26.61,26.61,0,0,1-5.73-.63c-47-10.3-84.76-46.63-98.61-94.81-10.86-37.77-5.41-77.91,15-110.14,19.05-30.15,48.67-49.91,83.4-55.63a116.8,116.8,0,0,1,19.06-1.57c51.82,0,100.09,33.86,120.11,84.25,20.51,51.65,9.28,109.05-28.63,146.22a25.79,25.79,0,0,1-18.13,7.45c-12.36,0-23.47-8.61-27-20.95l-3-10.51c-2.53-8.81-10.19-15.2-18.2-15.2a14.8,14.8,0,0,0-2.72.25,16.74,16.74,0,0,0-11.35,7.79,19.77,19.77,0,0,0-2.05,15.87l3.33,11.58a28.68,28.68,0,0,1-4.52,25.42A26,26,0,0,1,245.26,388.17Z" class="c"></path><path d="M258.35,132.16c48.42,0,94.6,31.58,113.82,80,20.29,51.08,7.13,105.36-27.07,138.9a19,19,0,0,1-13.4,5.53,21.67,21.67,0,0,1-20.52-16.06l-3-10.52c-3.35-11.64-13.58-20.09-24.71-20.09a21.72,21.72,0,0,0-3.92.35c-14.42,2.62-22.87,17.64-18.69,32.19L264.17,354c4,14-5.84,27.4-18.92,27.4a19.8,19.8,0,0,1-4.27-.47c-42.87-9.41-80-42.95-93.57-90.08-20.57-71.55,21.53-145.45,93-157.24a111.08,111.08,0,0,1,18-1.46m0-13.52h0a123.51,123.51,0,0,0-20.16,1.65c-36.66,6-67.92,26.89-88,58.68-21.4,33.86-27.14,76-15.75,115.62,14.54,50.57,54.26,88.71,103.66,99.55a32.69,32.69,0,0,0,33.47-12.52,35.37,35.37,0,0,0,5.61-31.35l-3.33-11.58a13,13,0,0,1,1.3-10.43,10,10,0,0,1,6.81-4.72,8.56,8.56,0,0,1,1.51-.13c5,0,10,4.43,11.71,10.31l3,10.51c4.37,15.22,18.15,25.85,33.51,25.85a32.5,32.5,0,0,0,22.86-9.4c39.86-39.08,51.7-99.35,30.18-153.54-21-52.94-71.82-88.5-126.38-88.5Z" class="b"></path><path d="M346.1,257.3l35.45-1.74A128.6,128.6,0,0,1,372,310.93c-20-11.39-53.71-21.53-100.79-4.46-32.41,11.75-55.62,34-71.81,56.46a129.93,129.93,0,0,1-52-72.07c-17.67-61.48,10.94-124.65,64.66-148.71-6.42,20.83-19,73.29,8.08,97.49C254.39,270.2,346.1,257.3,346.1,257.3Z" class="a"></path><path d="M147.89,318.36a35.53,35.53,0,0,1-34-25.61l-.46-1.57a35.45,35.45,0,0,1,24.23-43.81l215.25-61.89a35.38,35.38,0,0,1,43.79,24.24l.46,1.58a35.43,35.43,0,0,1-24.24,43.79L157.68,317a35.78,35.78,0,0,1-9.79,1.38Z" class="c"></path><path d="M362.7,190.86a28.65,28.65,0,0,1,27.51,20.73l.45,1.57a28.63,28.63,0,0,1-19.6,35.43L155.81,310.48a28.57,28.57,0,0,1-35.43-19.6l-.45-1.58a28.63,28.63,0,0,1,19.6-35.43L354.78,192a28.58,28.58,0,0,1,7.92-1.12m0-13.52A42,42,0,0,0,351,179L135.8,240.88A42.15,42.15,0,0,0,106.94,293l.45,1.58a42.12,42.12,0,0,0,52.16,28.86l215.24-61.89a42.17,42.17,0,0,0,28.86-52.16l-.45-1.58a42.35,42.35,0,0,0-40.5-30.51Z" class="b"></path><path d="M163.61,286.35l188-54.06c17.53-5,30.29-16.9,33.15-29.23a21.48,21.48,0,0,1,5.65,9.31c4.5,15.64-10.27,33.61-33,40.14l-188,54.06c-22.71,6.53-44.77-.85-49.26-16.48a21.41,21.41,0,0,1-.16-10.9C129,288.12,146.08,291.39,163.61,286.35Z" class="a"></path><path d="M255.66,141.87s29.92,5.67,46,27.19,43-5,4.77-21.9C279.16,135.12,255.66,141.87,255.66,141.87Z" class="d"></path><rect transform="translate(600.07 370.52) rotate(163.96)" rx="1.17" height="19.42" width="73.36" y="217.83" x="237.25" class="d"></rect><rect transform="translate(483.99 422.36) rotate(163.96)" rx="1.4" height="19.42" width="30.57" y="235.57" x="196.95" class="d"></rect></svg>