<?xml version="1.0" standalone="no"?><!DOCTYPE svg PUBLIC "-//W3C//DTD SVG 1.1//EN" "http://www.w3.org/Graphics/SVG/1.1/DTD/svg11.dtd"><svg t="1647400744076" class="icon" viewBox="0 0 1024 1024" version="1.1" xmlns="http://www.w3.org/2000/svg" p-id="4578" xmlns:xlink="http://www.w3.org/1999/xlink" width="200" height="200"><defs><style type="text/css"></style></defs><path d="M677.4 244.9c-13.8-6.7-30.5-1-37.2 12.8-6.7 13.8-1 30.5 12.8 37.2C763.7 349 832.4 459.1 832.4 582.2 832.4 758.6 689 902 512.7 902 336.4 902 193 758.6 193 582.2c0-122.8 68.5-232.8 178.7-287.1 13.8-6.8 19.4-23.4 12.7-37.2-6.8-13.8-23.5-19.5-37.2-12.7-129.5 63.8-209.8 192.9-209.8 337 0 207 168.4 375.4 375.4 375.4 207 0 375.3-168.4 375.3-375.4 0-144.5-80.8-273.8-210.7-337.3z" fill="#4F4F4F" p-id="4579"></path><path d="M362 337.5c-85.6 52.8-136.7 144.3-136.7 244.8 0 69.4 25.1 136.4 70.6 188.7 3.7 4.2 8.8 6.4 14 6.4 4.3 0 8.7-1.5 12.2-4.6 7.7-6.7 8.5-18.4 1.8-26.2-39.6-45.5-61.5-103.9-61.5-164.3 0-87.5 44.5-167.2 119.1-213.2 8.7-5.4 11.4-16.8 6-25.5-5.4-8.8-16.8-11.5-25.5-6.1zM640.5 366.9C716.1 411.8 763 494.4 763 582.2c0 138.1-112.3 250.4-250.3 250.4-47.2 0-93.1-13.2-132.8-38.1-8.7-5.4-20.1-2.8-25.6 5.9-5.4 8.7-2.8 20.1 5.8 25.6 45.7 28.7 98.4 43.8 152.6 43.8 158.5 0 287.4-129 287.4-287.4 0-100.9-53.9-195.6-140.7-247.2-8.8-5.2-20.2-2.3-25.4 6.5-5.2 8.6-2.3 20 6.5 25.2z" fill="#4F4F4F" p-id="4580"></path><path d="M512.7 664.1c45.1 0 81.8-36.7 81.8-81.8 0-2.2-0.2-4.3-0.5-6.9V91.9c0-15.4-12.4-27.8-27.8-27.8h-107c-15.4 0-27.8 12.5-27.8 27.8v483.5c-0.3 2.3-0.5 4.5-0.5 6.9 0 45.1 36.7 81.8 81.8 81.8z m-26.2-81.3v-0.1c0.1-1 0.3-2 0.4-3 0.1-0.9 0.1-1.7 0.1-2.6V119.7h51.3V577c0 0.9 0 1.8 0.1 2.7 0.1 0.9 0.2 1.7 0.4 3.2-0.3 14.1-12 25.6-26.2 25.6-14.2-0.1-25.8-11.5-26.1-25.7 0-0.1 0 0 0 0z" fill="#4F4F4F" p-id="4581"></path></svg>